<?xml version="1.0" encoding="UTF-8"?>
<svg id="Layer_2" data-name="Layer 2" xmlns="http://www.w3.org/2000/svg" viewBox="0 0 396.35 114.75">
  <defs>
    <style>
      .cls-1 {
        fill: #faf2df;
      }

      .cls-2 {
        fill: #f05123;
      }
    </style>
  </defs>
  <g id="Layer_1-2" data-name="Layer 1">
    <path class="cls-2" d="m8.93,0c5.69,0,8.41,2.85,8.28,8.41v5.05H0V0h8.93Z"/>
    <path class="cls-1" d="m8.93,19.53c5.56,0,8.28,2.72,8.28,8.28v60.15H0V19.53h8.93Z"/>
    <path class="cls-1" d="m90.04,8.67v49.68c0,20.57-10.74,30.79-32.08,30.66-21.21-.39-31.82-11.9-31.82-34.67s9.06-35.19,27.3-35.83c8.54,0,15.14,3.49,19.53,10.61V0h8.54c4.66,0,8.54,4.01,8.54,8.67Zm-46.18,44.89c-.13,13.84,4.53,20.83,14.36,20.83s14.75-6.99,14.75-20.83c-.39-13.2-5.17-19.66-14.49-19.66s-14.1,6.47-14.62,19.66Z"/>
    <path class="cls-1" d="m128.32,89.52c-20.7-.65-31.05-12.68-31.05-35.96s10.48-34.93,31.31-35.06c21.73,0,31.95,13.32,30.66,40.1h-44.24c.65,10.48,5.17,15.78,13.58,15.78,4.01,0,7.76-1.68,11.12-4.92,1.55-1.68,3.49-2.46,5.82-2.46h12.68c-3.75,14.49-13.07,22.51-29.88,22.51Zm-13.07-43.21h25.74c-1.04-9.06-5.3-13.71-12.68-13.71s-11.77,4.66-13.07,13.71Z"/>
    <path class="cls-1" d="m216.8,87.97c-5.69-.39-8.54-3.1-8.54-8.54v-35.19c-.39-7.11-4.27-10.61-11.9-10.61s-11.51,3.49-11.64,10.61v43.73h-17.46v-40.23c0-19.53,9.83-29.24,29.37-29.24s29.11,9.7,28.98,29.24v40.23h-8.8Z"/>
    <path class="cls-1" d="m252.37,31.82h-1.81v37.9c0,2.85,1.68,4.4,5.04,4.4h5.3v13.07c-5.56.52-11.64.52-18.11-.13-6.47-.65-9.57-4.66-9.44-12.29V0h8.93c4.53,0,8.28,4.14,8.28,8.67v10.87h10.35v3.75c0,4.92-3.75,8.54-8.54,8.54Z"/>
    <path class="cls-2" d="m279.67,0c5.69,0,8.41,2.85,8.28,8.41v5.05h-17.21V0h8.93Z"/>
    <path class="cls-1" d="m279.67,19.53c5.56,0,8.28,2.72,8.28,8.28v60.15h-17.21V19.53h8.93Z"/>
    <path class="cls-1" d="m316.66,31.82h-1.81v37.9c0,2.85,1.68,4.4,5.04,4.4h5.3v13.07c-5.56.52-11.64.52-18.11-.13-6.47-.65-9.57-4.66-9.44-12.29V0h8.93c4.53,0,8.28,4.14,8.28,8.67v10.87h10.35v3.75c0,4.92-3.75,8.54-8.54,8.54Z"/>
    <path class="cls-1" d="m344.34,100.13c9.44,0,12.81-4.66,10.09-13.71l-23.29-66.88h19.53l13.58,47.48,11.9-41.4c1.04-4.01,3.75-6.08,8.15-6.08h12.03l-27.04,80.08c-4.14,11.25-8.28,15.14-22.51,15.14-4.4,0-6.73-.13-7.24-.52v-14.1h4.79Z"/>
  </g>
</svg>