<?xml version="1.0" encoding="UTF-8"?>
<svg id="Layer_2" data-name="Layer 2" xmlns="http://www.w3.org/2000/svg" viewBox="0 0 85.32 112.91">
  <defs>
    <style>
      .cls-1 {
        fill: #f2bb3e;
      }
    </style>
  </defs>
  <g id="Layer_3" data-name="Layer 3">
    <g>
      <path class="cls-1" d="m44.6,99.34c-17.55-.41-31.42-10.86-36.53-27.69-2.29-7.54-1.99-15.07.65-22.51.48-1.35,1.08-2.12,2.85-2.06,1.9.06,3.94-.34,5.72-1.04,6.19-2.44,9.87-7.16,11.52-13.53.78-3.01,1.05-3.41,4.14-3,2.4.32,4.8.97,7.07,1.81,3.61,1.34,7.03,3.18,10.66,4.43,8.02,2.76,16.06,3.29,23.81-.96,1.29-.71,1.85-.17,2.56.75,5.47,7.07,8.18,15.08,8.24,24.01.04,21.91-18.78,40.29-40.72,39.78Zm-14.6-51.06c-5.76.12-10.59,5.26-10.4,11.07.18,5.67,5.29,10.46,10.97,10.28,5.58-.18,10.42-5.35,10.29-11-.13-5.73-5.11-10.47-10.86-10.35Zm31.6.03c-5.78.11-10.45,4.98-10.35,10.78.1,5.87,4.81,10.53,10.62,10.53,5.63,0,10.36-4.99,10.29-10.83-.07-5.95-4.75-10.59-10.56-10.48Zm-5.28,29.87c.48-1.76.12-3.28-1.54-4.12-1.68-.85-3.27-.57-4.43,1.1-.36.52-.69,1.06-1.09,1.54-1.85,2.3-4.9,2.49-6.98.41-.54-.54-.93-1.22-1.38-1.84-1.08-1.5-2.5-2.09-4.2-1.28-1.67.8-2.16,2.32-1.79,4.07.9,4.28,5.93,7.93,10.75,7.83,4.97-.1,9.46-3.35,10.66-7.7Z"/>
      <path class="cls-1" d="m0,33.57c4.33,4.87,12.92,4.88,17.21.28.48-.51.97-1.03,1.34-1.62,4.9-7.69,12.88-9.1,20.68-6.37,4.55,1.6,8.89,3.82,13.48,5.3,7.25,2.35,14.47,2.52,21.22-1.81,3.65-2.34,3.83-2.81,2.41-6.83-3.12-8.83-9.14-15.09-17.68-18.64-12.97-5.38-25.96-5.44-38.44,1.53-6.85,3.83-11.28,9.73-12.95,17.55-.39,1.84-.94,3.67-1.62,5.42-.98,2.53-2.81,4.3-5.63,5.19Z"/>
      <path class="cls-1" d="m45.35,112.89c2.17,0,4.34-.03,6.5.01,1.13.03,1.59-.35,1.67-1.55.29-4.88.33-4.89-4.61-4.92-3.36-.02-6.71.02-10.07-.04-1.27-.02-1.73.45-1.68,1.72.23,5.61-.67,4.67,4.62,4.75,1.19.02,2.38,0,3.57,0,0,0,0,0,0,.01Z"/>
      <path class="cls-1" d="m69.7,58.2c0-2.29-1.51-3.83-3.76-3.81-2.11.01-3.82,1.72-3.86,3.86-.04,2.09,1.72,3.84,3.86,3.83,2.16,0,3.76-1.66,3.77-3.88Z"/>
      <path class="cls-1" d="m38.6,58.2c0-2.29-1.51-3.83-3.76-3.81-2.11.01-3.82,1.72-3.86,3.86-.04,2.09,1.72,3.84,3.86,3.83,2.16,0,3.76-1.66,3.77-3.88Z"/>
    </g>
  </g>
</svg>