<?xml version="1.0" encoding="UTF-8"?>
<svg id="Layer_2" data-name="Layer 2" xmlns="http://www.w3.org/2000/svg" viewBox="0 0 146.04 187.94">
  <defs>
    <style>
      .cls-1, .cls-2, .cls-3, .cls-4 {
        stroke-miterlimit: 10;
        stroke-width: .5px;
      }

      .cls-1, .cls-5 {
        fill: #ff7f54;
      }

      .cls-1, .cls-4 {
        stroke: #4d261d;
      }

      .cls-2 {
        stroke: #b53315;
      }

      .cls-2, .cls-3, .cls-4 {
        fill: none;
      }

      .cls-3 {
        stroke: #401d12;
      }

      .cls-6 {
        fill: #ff9a78;
      }

      .cls-7 {
        fill: #f05123;
      }

      .cls-8 {
        fill: #dbddff;
      }

      .cls-9 {
        fill: #b53315;
      }

      .cls-10 {
        fill: #401d12;
      }
    </style>
  </defs>
  <g id="OBJECTS">
    <rect class="cls-8" y="0" width="146.04" height="187.93" rx="25.53" ry="25.53"/>
    <g>
      <g>
        <path class="cls-6" d="m92.52,105.74c-16.48,14.8-32.36,1.03-32.36,1.03.71-6.13,1.41-12.43,2.11-18.73,8.64,2.18,18.25,2.71,27.76,1.97.19,5.63,1.22,10.7,2.48,15.72Z"/>
        <path class="cls-5" d="m61.72,92.98c8.88,4.66,19.22,6.49,29.16,5.18-.44-2.62-.76-5.31-.85-8.15-9.51.74-19.12.2-27.76-1.97-.18,1.65-.37,3.29-.55,4.94Z"/>
      </g>
      <g>
        <g>
          <g>
            <path class="cls-6" d="m101.48,63.59c.58-2.11,1.89-4.02,3.65-5.33.83-.62,1.79-1.11,2.82-1.21,1.03-.1,2.14.24,2.79,1.05.58.73.73,1.72.71,2.65-.04,2.32-.96,4.61-2.53,6.32-1.57,1.71-3.77,2.82-6.08,3.07-.25.03-.56.02-.7-.19-.06-.1-.08-.22-.09-.34-.21-2.04-1.08-4.15-.57-6.02Z"/>
            <g>
              <path class="cls-4" d="m103.25,66.38c1.14-2.15,2.42-4.44,4.63-5.45"/>
              <path class="cls-4" d="m107.39,64.73c-.6-.74-1.62-1.11-2.55-.93"/>
            </g>
          </g>
          <path class="cls-4" d="m104.05,68.35s1.83,5.41.14,5.46c-1.7.05-1.36-3.67-1.36-3.67"/>
        </g>
        <g>
          <path class="cls-6" d="m55.59,62.42c-1.14-1.33-2.62-2.37-4.27-2.98-1.66-.61-3.66-.74-5.07.31-.58.43-1.01,1.03-1.33,1.67-1.48,3.02-.12,6.97,2.65,8.89,2.77,1.91,6.58,1.93,9.54.23-.64-2.86-1.17-5.74-1.52-8.12Z"/>
          <g>
            <path class="cls-4" d="m54.06,67.51c-.92-2.17-3.15-3.71-5.51-3.81"/>
            <path class="cls-4" d="m49.08,67.18c.3-1.08,1.03-2.04,1.99-2.63"/>
          </g>
        </g>
        <path class="cls-6" d="m58.86,40.35c-5.55,5.66-6.08,17.88-5.48,27.38.29,4.61.74,9.25,2.18,13.64,1.44,4.39,3.96,8.54,7.72,11.22,5.21,3.71,12.11,4.15,18.42,3.14,4.18-.67,8.37-1.97,11.66-4.63,5.53-4.47,7.58-11.93,8.54-18.97.87-6.37,1.1-12.9-.24-19.2-1.34-6.29-4.34-12.35-9.17-16.6-4.83-4.25-11.58-6.5-17.87-5.15,0,0-10.22,3.52-15.78,9.18Z"/>
        <g>
          <g>
            <path class="cls-5" d="m86.77,71.65c0-2.4,2.44-4.34,5.45-4.34s5.45,1.94,5.45,4.34-2.44,4.34-5.45,4.34-5.45-1.94-5.45-4.34Z"/>
            <path class="cls-5" d="m58,71.65c0-2.4,2.44-4.34,5.45-4.34s5.45,1.94,5.45,4.34-2.44,4.34-5.45,4.34-5.45-1.94-5.45-4.34Z"/>
          </g>
          <g>
            <path class="cls-1" d="m78.41,60.34c-.36,1.72.68,5.03,1.81,6.37.27.32.6.65.67,1.06.09.5-.22.98-.53,1.39-.71.91-1.44.98-3.05.96"/>
            <path class="cls-4" d="m74.66,72.14c.1.86.26,1.76.84,2.41.62.69,1.67.96,2.54.63.87-.32,1.5-1.21,1.51-2.14"/>
            <g>
              <path class="cls-10" d="m68.56,64c0-.68.55-1.23,1.23-1.23s1.23.55,1.23,1.23-.55,1.23-1.23,1.23-1.23-.55-1.23-1.23Z"/>
              <path class="cls-10" d="m67.19,61.12c1.42-.73,2.85-1.46,4.27-2.19.12-.06.24-.12.32-.23.17-.23.06-.58-.17-.75-.22-.18-.52-.22-.81-.23-1.64-.07-3.34.76-4.1,2.22-.12.24-.22.51-.14.76.08.25.43.52.63.42Z"/>
            </g>
            <g>
              <path class="cls-10" d="m85.05,64c0-.68.55-1.23,1.23-1.23s1.23.55,1.23,1.23-.55,1.23-1.23,1.23-1.23-.55-1.23-1.23Z"/>
              <path class="cls-10" d="m89.35,61.53c-1.59-.14-3.18-.29-4.78-.43-.13-.01-.27-.03-.38-.1-.24-.15-.27-.51-.13-.76.14-.25.4-.4.66-.51,1.49-.68,3.39-.55,4.63.52.2.17.39.39.42.65.02.26-.2.64-.42.62Z"/>
            </g>
          </g>
          <path class="cls-4" d="m61.88,91.54s12.74,10.68,30.05.36"/>
        </g>
        <g>
          <path class="cls-10" d="m53.62,69.37s7.05-2.16,5.17-15.41c0,0,3.29-.38,7.24-2.16,3.95-1.79,6.01-1.6,6.01-1.6,0,0,.56,1.79,6.01,1.69,5.45-.09,9.77-1.79,9.77-1.79,0,0,.47,5.45,8.55,4.04,0,0-1.13,16.63,4.51,18.04l1.49-9.57c.27-1.75,1.17-3.37,2.61-4.4.7-.5,1.51-.88,2.39-.88l-.28-6.58s4.14-.47,5.64-4.51c0,0-6.24-.93-10.61-6.71-4.37-5.78-6.73-12.51-18.52-9.68-11.8,2.83-12.51-2.83-19.59,2.12-7.08,4.96-8.85,12.74-8.85,12.74,0,0-10.03,4.37-5.31,14.39h0c2.42.83,4.02,3.15,3.93,5.72l-.16,4.53Z"/>
          <path class="cls-3" d="m53.2,49.36s-1.03-13.33,9.74-14.87c10.77-1.54,20.38-8.97,28.46-7.05,8.08,1.92,1.92,10.77,8.59,15.51"/>
        </g>
      </g>
    </g>
    <path class="cls-7" d="m142.15,155.26c-.29-6.66-.66-13.62-4.01-19.38-4.01-6.89-11.52-10.81-18.65-14.39-5.8-2.91-11.59-5.82-17.45-9.22-.2-.13-.4-.26-.59-.36-3.1-1.66-6.18-3.66-8.93-6.17-16.48,14.8-32.36,1.03-32.36,1.03-5.37,3.57-16.48,9.6-16.48,9.6.03.05.06.1.09.15-5,2.22-9.98,4.45-14.92,6.8-4.66,2.21-9.39,4.6-12.87,8.42-3.25,3.57-5.16,8.15-6.65,12.75-2.67,8.21-5.28,20.01-6.66,29.23,4.17,8.43,12.85,14.22,22.89,14.22h94.97c9.99,0,18.63-5.74,22.82-14.09-.41-6.21-.96-12.73-1.21-18.58Z"/>
    <g>
      <path class="cls-9" d="m96.69,109.03c-1.45-.99-2.85-2.08-4.18-3.29-16.48,14.8-32.36,1.03-32.36,1.03-.77.51-1.66,1.07-2.61,1.66,4.18,4.96,16.67,15.54,39.15.6Z"/>
      <path class="cls-2" d="m29.05,152.41s4.41,1.82,3.37,33.45"/>
      <path class="cls-2" d="m114.88,149.3s-5.3,3.88-4,38.63"/>
      <path class="cls-2" d="m111.99,147.67s-.41,7.45-.52,14.9"/>
      <path class="cls-2" d="m31.76,153.35s.07,6.3.07,8.38"/>
      <path class="cls-2" d="m83.52,157.31h16.92s2.14,19.05-8.87,19.05-8.05-19.05-8.05-19.05Z"/>
      <line class="cls-2" x1="97.84" y1="159.48" x2="100.27" y2="159.48"/>
      <line class="cls-2" x1="83.35" y1="159.43" x2="94.29" y2="159.47"/>
    </g>
  </g>
</svg>