<?xml version="1.0" encoding="UTF-8"?>
<svg id="Layer_2" data-name="Layer 2" xmlns="http://www.w3.org/2000/svg" viewBox="0 0 242.8 242.8">
  <defs>
    <style>
      .cls-1 {
        fill: #f2bb3e;
      }

      .cls-2 {
        fill: #333;
        stroke: #f2bb3e;
        stroke-miterlimit: 10;
        stroke-width: 20px;
      }

      .cls-3 {
        fill: #f05123;
      }
    </style>
  </defs>
  <g id="Layer_2-2" data-name="Layer 2">
    <rect class="cls-2" x="10" y="10" width="222.8" height="222.8" rx="36.55" ry="36.55"/>
    <path class="cls-3" d="m58.57,37.78c10.52,0,15.55,5.26,15.31,15.55v9.33h-31.81v-24.88h16.5Z"/>
    <path class="cls-1" d="m58.57,73.9c10.28,0,15.31,5.02,15.31,15.31v111.22h-31.81v-126.53h16.5Z"/>
    <path class="cls-1" d="m202.65,51.89v91.85c0,38.03-19.85,56.92-59.32,56.69-39.23-.72-58.84-22-58.84-64.1s16.74-65.06,50.47-66.25c15.79,0,27.98,6.46,36.12,19.61v-53.82h15.79c8.61,0,15.79,7.42,15.79,16.03Zm-85.39,83c-.24,25.59,8.37,38.51,26.55,38.51s27.27-12.92,27.27-38.51c-.72-24.4-9.57-36.36-26.79-36.36s-26.07,11.96-27.03,36.36Z"/>
  </g>
</svg>